# xmcd CD database file
#
# Track frame offsets:
#	150
#	13985
#	24580
#	39220
#	51415
#	62482
#	74075
#	86787
#	100167
#	108625
#	117205
#	132582
#
# Disc length: 1904 seconds
#
# Revision: 1
# Processed by: cddbd v1.5.1PL0 Copyright (c) Steve Scherf et al.
# Submitted via: CDex 1.51
#
DISCID=ad076e0c
DTITLE=Patsy Riggir - Lay Down Beside Me
DYEAR=1981
DGENRE=Country
TTITLE0=Lay Down Beside Me
TTITLE1=We Can Sing
TTITLE2=Storms Never Last
TTITLE3=Let's Make A Memory
TTITLE4=Dear God
TTITLE5=It's A Lovely Lovely World
TTITLE6=Good At Missing You
TTITLE7=She Didn't Colour Daddy
TTITLE8=Still Singing Country
TTITLE9=It's A Small World
TTITLE10=I'll Need Someone To Hold Me
TTITLE11=Sunshine Of My World
EXTD=YEAR: 1981
EXTT0=
EXTT1=
EXTT2=
EXTT3=
EXTT4=
EXTT5=
EXTT6=
EXTT7=
EXTT8=
EXTT9=
EXTT10=
EXTT11=
PLAYORDER=
